# xmcd
#
# Track frame offsets: 
#        150
#        21320
#        26317
#        33170
#        37825
#        41392
#        47860
#        64342
#        69575
#        73082
#        81522
#        85067
#        91237
#        96535
#        101997
#        107590
#        113362
#        117722
#        125632
#        130592
#        138325
#        150305
#        154937
#        165385
#        170042
#        188237
#        192797
#        201860
#        208187
#        215955
#        222120
#        230067
#        261022
#
# Disc length: 3789 seconds
#
# Revision: 1
# Processed by: cddbd v1.5.2PL0 Copyright (c) Steve Scherf et al.
# Submitted via: ExactAudioCopyFreeDBPlugin 1.0
#
DISCID=df0ecb21
DTITLE=Angela Hewitt - Fantasien und Inventionen
DYEAR=1994
DGENRE=Bach
TTITLE0=Phantasie c-moll, BWV 906
TTITLE1=Invention 1, C-Dur, BWV 772
TTITLE2=Invention 2, c-moll, BWV 773
TTITLE3=Invention 3, D-Dur, BWV 774
TTITLE4=Invention 4, d-moll, BWV 775
TTITLE5=Invention 5, Es-Dur, BWV 776
TTITLE6=Invention 6, E-Dur, BWV 777
TTITLE7=Invention 7, e-moll, BWV 778
TTITLE8=Invention 8, F-Dur, BWV 779
TTITLE9=Invention 9, f-moll, BWV 780
TTITLE10=Invention 10, G-Dur, BWV 781
TTITLE11=Invention 11, g-moll, BWV 782
TTITLE12=Invention 12, A-Dur, BWV 783
TTITLE13=Invention 13, a-moll, BWV 784
TTITLE14=Invention 14, B-Dur, BWV 785
TTITLE15=Invention 15, h-moll, BWV 786
TTITLE16=Sinfonia 1, C-Dur, BWV 787
TTITLE17=Sinfonia 2, c-moll, BWV 788
TTITLE18=Sinfonia 3, D-Dur, BWV 789
TTITLE19=Sinfonia 4, d-moll, BWV 790
TTITLE20=Sinfonia 5, Es-Dur, BWV 791
TTITLE21=Sinfonia 6, E-Dur, BWV 792
TTITLE22=Sinfonia 7, e-moll, BWV 793
TTITLE23=Sinfonia 8, F-Dur, BWV 794
TTITLE24=Sinfonia 9, f-moll, BWV 795
TTITLE25=Sinfonia 10, G-Dur, BWV 796
TTITLE26=Sinfonia 11, g-moll, BWV 797
TTITLE27=Sinfonia 12, A-Dur, BWV 798
TTITLE28=Sinfonia 13, a-moll, BWV 799
TTITLE29=Sinfonia 14, B-Dur, BWV 800
TTITLE30=Sinfonia 15 h-moll, BWV 801
TTITLE31=Chromatische Fantasie und Fuge, d-moll  BWV 903 -  Fantasie
TTITLE32=Chromatische Fantasie und Fuge, d-moll  BWV 903 -  Fuge
EXTD=
EXTT0=
EXTT1=
EXTT2=
EXTT3=
EXTT4=
EXTT5=
EXTT6=
EXTT7=
EXTT8=
EXTT9=
EXTT10=
EXTT11=
EXTT12=
EXTT13=
EXTT14=
EXTT15=
EXTT16=
EXTT17=
EXTT18=
EXTT19=
EXTT20=
EXTT21=
EXTT22=
EXTT23=
EXTT24=
EXTT25=
EXTT26=
EXTT27=
EXTT28=
EXTT29=
EXTT30=
EXTT31=
EXTT32=
PLAYORDER=
